<svg xmlns="http://www.w3.org/2000/svg" xmlns:xlink="http://www.w3.org/1999/xlink" viewBox="0 0 512 512" id="doctor"><defs><radialGradient id="e" cx="110.239" cy="426.621" r="46.662" gradientUnits="userSpaceOnUse"><stop offset="0" stop-color="#9595a8"></stop><stop offset=".286" stop-color="#9292a4"></stop><stop offset=".54" stop-color="#88889a"></stop><stop offset=".781" stop-color="#787888"></stop><stop offset="1" stop-color="#626270"></stop></radialGradient><radialGradient id="a" cx="99.755" cy="39.933" r="240.897" gradientUnits="userSpaceOnUse"><stop offset=".282" stop-color="#3d3c3b" stop-opacity="0"></stop><stop offset=".514" stop-color="#393837" stop-opacity=".169"></stop><stop offset=".826" stop-color="#2d2c2b" stop-opacity=".646"></stop><stop offset="1" stop-color="#242423"></stop></radialGradient><radialGradient id="h" cx="101.438" cy="119.842" r="248.026" gradientUnits="userSpaceOnUse"><stop offset=".196" stop-color="#bd7768" stop-opacity="0"></stop><stop offset="1" stop-color="#8c483a"></stop></radialGradient><radialGradient id="i" cx="186.695" cy="175.492" r="34.577" gradientTransform="rotate(45 207.651 195.812)" xlink:href="#a"></radialGradient><radialGradient id="j" cx="283.399" cy="175.492" r="34.577" gradientTransform="rotate(45 304.356 195.812)" xlink:href="#a"></radialGradient><radialGradient id="k" cx="101.331" cy="221.401" r="233.151" gradientUnits="userSpaceOnUse"><stop offset="0" stop-color="#eaf5fb" stop-opacity="0"></stop><stop offset=".18" stop-color="#e9f4fb" stop-opacity=".014"></stop><stop offset=".319" stop-color="#e6f2f9" stop-opacity=".057"></stop><stop offset=".443" stop-color="#e0eff7" stop-opacity=".13"></stop><stop offset=".56" stop-color="#d8ebf5" stop-opacity=".234"></stop><stop offset=".67" stop-color="#cee5f1" stop-opacity=".367"></stop><stop offset=".777" stop-color="#c1deed" stop-opacity=".531"></stop><stop offset=".88" stop-color="#b2d5e7" stop-opacity=".726"></stop><stop offset=".978" stop-color="#a1cbe1" stop-opacity=".945"></stop><stop offset="1" stop-color="#9dc9e0"></stop></radialGradient><linearGradient id="c" x1="256" x2="256" y1="480" y2="353.263" gradientUnits="userSpaceOnUse"><stop offset=".006" stop-color="#6db8b4" stop-opacity="0"></stop><stop offset="1" stop-color="#2b9993"></stop></linearGradient><linearGradient id="d" x1="127.709" x2="366.088" y1="373.847" y2="373.847" gradientUnits="userSpaceOnUse"><stop offset="0" stop-color="#444241"></stop><stop offset="1" stop-color="#2b2a2a"></stop></linearGradient><linearGradient id="b" x1="127.709" x2="137.709" y1="430.096" y2="430.096" gradientUnits="userSpaceOnUse"><stop offset="0" stop-color="#b8b8cf"></stop><stop offset="1" stop-color="#9797b8"></stop></linearGradient><linearGradient id="f" x1="340.202" x2="418.345" y1="419.707" y2="419.707" xlink:href="#b"></linearGradient><linearGradient id="g" x1="256" x2="256" y1="430.547" y2="321.92" gradientUnits="userSpaceOnUse"><stop offset="0" stop-color="#bd7768" stop-opacity="0"></stop><stop offset=".04" stop-color="#bb7566" stop-opacity=".046"></stop><stop offset=".501" stop-color="#a25d4e" stop-opacity=".557"></stop><stop offset=".833" stop-color="#924e40" stop-opacity=".877"></stop><stop offset="1" stop-color="#8c483a"></stop></linearGradient></defs><g data-name="Avatar Man Doctor Nurse Medic Health Mask"><path fill="#40b8b2" d="M334.622 353.263H177.367a78.787 78.787 0 0 0-78.622 78.735c0 17.369 3.505 25.504 31.451 31.451 0 0 94.082 16.551 125.804 16.551s125.804-16.55 125.804-16.55c27.946-5.948 31.451-14.083 31.451-31.452a78.79 78.79 0 0 0-78.633-78.735Z"></path><path fill="url(#c)" d="M334.622 353.263H177.367a78.787 78.787 0 0 0-78.622 78.735c0 17.369 3.505 25.504 31.451 31.451 0 0 94.082 16.551 125.804 16.551s125.804-16.55 125.804-16.55c27.946-5.948 31.451-14.083 31.451-31.452a78.79 78.79 0 0 0-78.633-78.735Z"></path><path fill="url(#d)" d="M137.709 404.396h-10a61.166 61.166 0 0 1 61.097-61.097h134.37a60.735 60.735 0 0 1 42.912 17.606l-7.023 7.118a50.795 50.795 0 0 0-35.889-14.724h-134.37a51.155 51.155 0 0 0-51.097 51.097Z"></path><circle cx="132.709" cy="455.796" r="24.121" fill="url(#e)"></circle><path fill="url(#b)" d="M127.709 455.796v-51.4c0-6.611 10-6.62 10 0v51.4c0 6.61-10 6.62-10 0Z"></path><path fill="url(#f)" d="M383.648 395.66a61.18 61.18 0 0 0-17.6-34.795c-4.71-4.638-11.733 2.48-7.017 7.125a51.158 51.158 0 0 1 14.515 27.843 39.13 39.13 0 0 0-33.344 38.648v28.244a18.247 18.247 0 0 0 11.472 16.922c6.119 2.448 9.702-6.746 3.55-9.352a8.23 8.23 0 0 1-5.022-7.57V435.1c0-15.819 12.38-29.207 28.19-29.677a29.103 29.103 0 0 1 29.953 29.058v28.244a8.23 8.23 0 0 1-5.021 7.57c-6.153 2.606-2.567 11.799 3.55 9.352a18.246 18.246 0 0 0 11.47-16.922V434.48a39.123 39.123 0 0 0-34.696-38.82Z"></path><path fill="#3d3c3b" d="M256 32c-113.973 3.156-128 72.742-128 150.794h256C384 104.742 369.973 35.156 256 32"></path><path fill="url(#a)" d="M256 32c-113.973 3.156-128 72.742-128 150.794h256C384 104.742 369.973 35.156 256 32"></path><path fill="#bd7768" d="M256 430.547s-47.176-51.122-47.176-77.176V321.92h94.352v31.451c0 26.055-47.176 77.176-47.176 77.176Z"></path><path fill="url(#g)" d="M256 430.547s-47.176-51.122-47.176-77.176V321.92h94.352v31.451c0 26.055-47.176 77.176-47.176 77.176Z"></path><path fill="#bd7768" d="M364.843 252.437a7.93 7.93 0 0 1 6.51-6.507 31.73 31.73 0 0 0 26.177-30.944v-23.588a31.736 31.736 0 0 0-26.36-30.976 8.012 8.012 0 0 1-6.477-6.178 63.114 63.114 0 0 0-61.516-49.336h-94.353a63.114 63.114 0 0 0-61.516 49.336 8.012 8.012 0 0 1-6.476 6.178 31.736 31.736 0 0 0-26.361 30.976v23.588a31.73 31.73 0 0 0 26.176 30.944 7.93 7.93 0 0 1 6.51 6.507Z"></path><path fill="url(#h)" d="M364.843 252.437a7.93 7.93 0 0 1 6.51-6.507 31.73 31.73 0 0 0 26.177-30.944v-23.588a31.736 31.736 0 0 0-26.36-30.976 8.012 8.012 0 0 1-6.477-6.178 63.114 63.114 0 0 0-61.516-49.336h-94.353a63.114 63.114 0 0 0-61.516 49.336 8.012 8.012 0 0 1-6.476 6.178 31.736 31.736 0 0 0-26.361 30.976v23.588a31.73 31.73 0 0 0 26.176 30.944 7.93 7.93 0 0 1 6.51 6.507Z"></path><path fill="#eaf5fb" d="m153.775 250.002-14.976-89.89c-1.087-6.523 8.775-8.173 9.864-1.643l14.976 89.89Z"></path><circle cx="207.651" cy="195.812" r="15.664" fill="#3d3c3b" transform="rotate(-45 207.65 195.812)"></circle><circle cx="304.356" cy="195.812" r="15.664" fill="#3d3c3b" transform="rotate(-45 304.356 195.812)"></circle><circle cx="207.651" cy="195.812" r="15.664" fill="url(#i)" transform="rotate(-45 207.65 195.812)"></circle><circle cx="304.356" cy="195.812" r="15.664" fill="url(#j)" transform="rotate(-45 304.356 195.812)"></circle><path fill="#eaf5fb" d="M368.26 248.004h-45.722c-16.894 0-33.13-5.517-47.309-14.701-6.197-4.014-22.228-10.535-38.494 0-14.18 9.184-30.415 14.7-47.309 14.7H143.74c.88 5.367 11.194 101.497 112.251 101.497 82.54 0 105.726-61.368 112.269-101.496Z"></path><path fill="#b2c8ce" d="m348.36 248.358 14.977-89.889c1.088-6.525 10.95-4.88 9.864 1.644l-14.976 89.889Z"></path><path fill="url(#k)" d="M368.26 248.004h-45.722c-16.894 0-33.13-5.517-47.309-14.701-6.197-4.014-22.228-10.535-38.494 0-14.18 9.184-30.415 14.7-47.309 14.7H143.74c.88 5.367 11.194 101.497 112.251 101.497 82.54 0 105.726-61.368 112.269-101.496Z"></path></g></svg>