<svg id="SvgjsSvg1001" width="288" height="288" xmlns="http://www.w3.org/2000/svg" version="1.1" xmlns:xlink="http://www.w3.org/1999/xlink" xmlns:svgjs="http://svgjs.com/svgjs"><defs id="SvgjsDefs1002"></defs><g id="SvgjsG1008"><svg xmlns="http://www.w3.org/2000/svg" viewBox="0 0 25 25" width="288" height="288"><path fill="#36486b" d="M21.5,12h-1a.5.5,0,0,1,0-1h1a.5.5,0,0,1,0,1Z" class="color172f35 svgShape"></path><path fill="#ffffff" d="M12.5,5.5v15H10.43a1,1,0,0,1-1-.89,8.91,8.91,0,0,0-1.39-4.1H8a5.93,5.93,0,0,1-1.54-4A6,6,0,0,1,12.5,5.5Z" class="colorfff svgShape"></path><path fill="#fff620" d="M12.5,5.5a6,6,0,0,1,6,6,5.93,5.93,0,0,1-1.54,4,8.86,8.86,0,0,0-1.4,4.11,1,1,0,0,1-1,.89H12.5Z" class="color74e8d5 svgShape"></path><path fill="#36486b" d="M14.57,21H10.43a1.5,1.5,0,0,1-1.49-1.33,8.37,8.37,0,0,0-1.28-3.84,6.5,6.5,0,1,1,9.67,0,8.33,8.33,0,0,0-1.27,3.82A1.5,1.5,0,0,1,14.57,21ZM8.4,15.16l.06.06a9.54,9.54,0,0,1,1.48,4.34.49.49,0,0,0,.49.44h4.14a.49.49,0,0,0,.49-.45,9.33,9.33,0,0,1,1.5-4.34,5.5,5.5,0,1,0-8.16-.05Zm.14.34h0Z" class="color172f35 svgShape"></path><path fill="#36486b" d="M16.5 11a.43.43 0 0 1-.19 0 .36.36 0 0 1-.16-.11.48.48 0 0 1 0-.7.36.36 0 0 1 .16-.11.49.49 0 0 1 .54.11.47.47 0 0 1 .15.35.41.41 0 0 1 0 .19.36.36 0 0 1-.11.16A.47.47 0 0 1 16.5 11zM15.77 9.7a.49.49 0 0 1-.41-.21 3.5 3.5 0 0 0-2.15-1.42.5.5 0 0 1-.39-.59.51.51 0 0 1 .59-.39 4.45 4.45 0 0 1 2.77 1.83.49.49 0 0 1-.13.69A.47.47 0 0 1 15.77 9.7zM14.5 23h-4a.5.5 0 0 1 0-1h4a.5.5 0 0 1 0 1zM12.5 4a.5.5 0 0 1-.5-.5v-1a.5.5 0 0 1 1 0v1A.5.5 0 0 1 12.5 4zM18.16 6.34a.47.47 0 0 1-.35-.15.48.48 0 0 1 0-.7l.7-.7a.49.49 0 0 1 .7.7l-.7.7A.47.47 0 0 1 18.16 6.34zM18.86 18.36a.47.47 0 0 1-.35-.15l-.7-.7a.49.49 0 0 1 .7-.7l.7.7a.48.48 0 0 1 0 .7A.47.47 0 0 1 18.86 18.36zM6.14 18.36a.47.47 0 0 1-.35-.15.48.48 0 0 1 0-.7l.7-.7a.49.49 0 0 1 .7.7l-.7.7A.47.47 0 0 1 6.14 18.36zM4.5 12h-1a.5.5 0 0 1 0-1h1a.5.5 0 0 1 0 1zM6.84 6.34a.47.47 0 0 1-.35-.15l-.7-.7a.49.49 0 0 1 .7-.7l.7.7a.48.48 0 0 1 0 .7A.47.47 0 0 1 6.84 6.34z" class="color172f35 svgShape"></path></svg></g></svg>