<svg xmlns="http://www.w3.org/2000/svg" data-name="Layer 1" viewBox="0 0 512 512" id="emergency-vehicle"><path fill="#fbfbfb" d="M414.50018,258.5l-37.0064-81.41409A30,30,0,0,0,350.18278,159.5H37.50018a30,30,0,0,0-30,30V371a30,30,0,0,0,30,30h437a30,30,0,0,0,30-30V310.12278a30,30,0,0,0-20.51316-28.4605Z"></path><path fill="#f2f2f2" d="M483.98706,281.66235,414.50018,258.5l-37.00641-81.41406A29.99979,29.99979,0,0,0,350.1828,159.5h-30a29.99979,29.99979,0,0,1,27.311,17.58594L384.50018,258.5l69.48688,23.16235a29.99973,29.99973,0,0,1,20.51312,28.46045V371a30,30,0,0,1-30,30h30a30,30,0,0,0,30-30V310.1228A29.99973,29.99973,0,0,0,483.98706,281.66235Z"></path><path fill="#b3e0ff" d="M373.74017,258.5h-113.74a3.999,3.999,0,0,1-4-4v-61a3.999,3.999,0,0,1,4-4h85.45a3.98042,3.98042,0,0,1,3.62,2.32007l28.29,61A3.99436,3.99436,0,0,1,373.74017,258.5Z"></path><path fill="#eee" d="M7.50018,189.5v126h161.5v-156h-131.5A29.99993,29.99993,0,0,0,7.50018,189.5Z"></path><path fill="#f66" d="M504.50018 315.5V371a29.99808 29.99808 0 0 1-30 30h-437a29.998 29.998 0 0 1-30-30V315.5zM129.00018 222.5h-23v-23a10 10 0 0 0-10-10h-10a10 10 0 0 0-10 10v23h-23a10 10 0 0 0-10 10v10a10 10 0 0 0 10 10h23v23a10 10 0 0 0 10 10h10a10 10 0 0 0 10-10v-23h23a10 10 0 0 0 10-10v-10A10 10 0 0 0 129.00018 222.5z"></path><path fill="#ff4e4e" d="M181.50018,401h-111a55.5,55.5,0,0,1,111,0Z"></path><circle cx="111" cy="401" r="55.5" fill="#4a4f60"></circle><path fill="#3b3f4d" d="M111.00018,345.5a55.92113,55.92113,0,0,0-7.5.51855,55.48917,55.48917,0,0,1,0,109.9629,55.49559,55.49559,0,1,0,7.5-110.48145Z"></path><path fill="#ff4e4e" d="M421.50018,401h-111a55.5,55.5,0,0,1,111,0Z"></path><circle cx="351" cy="401" r="55.5" fill="#4a4f60"></circle><path fill="#3b3f4d" d="M351.00018,345.5a55.92113,55.92113,0,0,0-7.5.51855,55.48917,55.48917,0,0,1,0,109.9629,55.49559,55.49559,0,1,0,7.5-110.48145Z"></path><path fill="#f66" d="M315.50016,112.5h.00005a26,26,0,0,1,26,26v21a0,0,0,0,1,0,0h-52a0,0,0,0,1,0,0v-21a26,26,0,0,1,26-26Z"></path><path fill="#ff4e4e" d="M315.50018,112.5h0a25.99061,25.99061,0,0,0-7.5,1.10315,26.00762,26.00762,0,0,1,18.5,24.89679V159.5h15V138.49994A25.99994,25.99994,0,0,0,315.50018,112.5Z"></path><circle cx="351" cy="401" r="15" fill="#676e87"></circle><circle cx="111" cy="401" r="15" fill="#676e87"></circle><path fill="#f66" d="M315.50018 84.5a7.50006 7.50006 0 0 1-7.5-7.5V55a7.5 7.5 0 0 1 15 0V77A7.50006 7.50006 0 0 1 315.50018 84.5zM345.86591 84.50146a7.50253 7.50253 0 0 1-6.5254-11.186l9.51026-16.86035a7.49973 7.49973 0 1 1 13.06445 7.36914L352.405 80.68457A7.49731 7.49731 0 0 1 345.86591 84.50146zM285.13446 84.50146a7.49673 7.49673 0 0 1-6.53906-3.81689l-9.51026-16.86035a7.49974 7.49974 0 1 1 13.06446-7.36914l9.51025 16.86035a7.50253 7.50253 0 0 1-6.52539 11.186z"></path><path fill="#4a4f60" d="M504.50018,464.5h-497a7.5,7.5,0,0,1,0-15h497a7.5,7.5,0,0,1,0,15Z"></path><path fill="#ff4e4e" d="M474.50018,371a30,30,0,0,1-30,30h30a30,30,0,0,0,30-30V315.5h-30Z"></path><path fill="#eee" d="M195.78778 106H84.50507a7.5 7.5 0 1 1 0-15H195.78778a7.5 7.5 0 0 1 0 15zM54.32635 106H42.06659a7.5 7.5 0 1 1 0-15H54.32635a7.5 7.5 0 0 1 0 15zM209.93378 77.77881H126.94305a7.5 7.5 0 0 1 0-15h82.99073a7.5 7.5 0 1 1 0 15z"></path></svg>