<svg xmlns="http://www.w3.org/2000/svg" data-name="Layer 1" viewBox="0 0 512 512" id="full-body-checkup"><path fill="#fff8cc" d="M189.5 315.5h-21a30 30 0 0 1-30-30v-135a30 30 0 0 1 30-30h175a30 30 0 0 1 30 30v135a30 30 0 0 1-30 30h-20"></path><path fill="#fff8cc" d="M323.5 275.5v199a29.998 29.998 0 0 1-30 30h-74a29.998 29.998 0 0 1-30-30v-199Z"></path><rect width="350.062" height="195" x="80.969" y="150.5" fill="#d9f0ff" rx="30"></rect><path fill="#cecece" d="M343.5 263a7.5 7.5 0 0 1-7.5-7.5v-75a7.5 7.5 0 0 1 15 0v75a7.5 7.5 0 0 1-7.5 7.5zm-175 0a7.5 7.5 0 0 1-7.5-7.5v-75a7.5 7.5 0 0 1 15 0v75a7.5 7.5 0 0 1-7.5 7.5z"></path><path fill="#ffed80" d="M263.5 390.5v114h-15v-114a7.5 7.5 0 0 1 15 0Z"></path><circle cx="256.5" cy="49.135" r="41.635" fill="#ffed80"></circle><path fill="#cecece" d="M311.526 218H263.5v-15h25.526a7.5 7.5 0 0 0 0-15H263.5v-7.5a7.5 7.5 0 0 0-15 0v7.5h-25.526a7.5 7.5 0 1 0 0 15H248.5v15h-48.026a7.5 7.5 0 1 0 0 15H248.5v15h-25.526a7.5 7.5 0 1 0 0 15H248.5v20.37l-8.272-3.354a15.067 15.067 0 0 0-11.322 27.926l21.019 8.521a17.5 17.5 0 0 0 13.15 0l21.019-8.52a15.067 15.067 0 1 0-11.321-27.927l-9.273 3.76V263h25.526a7.5 7.5 0 0 0 0-15H263.5v-15h48.026a7.5 7.5 0 0 0 0-15Z"></path></svg>