<svg xmlns="http://www.w3.org/2000/svg" data-name="Layer 1" viewBox="0 0 512 512" id="health-consultation"><path fill="#ff9670" d="M178 138.096V113.5h-54v24.596a15 15 0 0 1-10.461 14.296l-36.116 11.466A30 30 0 0 0 56.5 192.452V249.5h189v-57.048a30 30 0 0 0-20.922-28.594l-36.117-11.466a15 15 0 0 1-10.46-14.296Z"></path><path fill="#ffcd85" d="M188.461 152.392a15 15 0 0 1-10.46-14.296V113.5h-54v24.596a15 15 0 0 1-10.462 14.296 71.37 71.37 0 0 0 74.922 0Z"></path><path fill="#ff7c4e" d="M200.5 241.086a7.5 7.5 0 0 1-7.5-7.5v-24.273a7.5 7.5 0 0 1 15 0v24.273a7.5 7.5 0 0 1-7.5 7.5zm-99-.706a7.5 7.5 0 0 1-7.5-7.5v-23.567a7.5 7.5 0 0 1 15 0v23.567a7.5 7.5 0 0 1-7.5 7.5z"></path><path fill="#ffcd85" d="m428.5 141.141-53 15v-54h53v39z"></path><path fill="#676e87" d="M463.5 200.14v79c0 16.57-13.431 30-28.301 30H322.5v41h122a60 60 0 0 0 60-60v-49a41 41 0 0 0-41-41Z"></path><path fill="#595f74" d="M463.5 200.14v5.212a40.98 40.98 0 0 1 21 35.789v49a60 60 0 0 1-60 60h20a60 60 0 0 0 60-60v-49a41 41 0 0 0-41-41ZM444.5 504.5h-34l-19.808-154.359h34.409L444.5 504.5z"></path><path fill="#4a4f60" d="M425.101 350.141h-10L434.5 504.5h10l-19.399-154.359z"></path><path fill="#ffc166" d="M375.5 117.477a29.85 29.85 0 0 0 15 4.023h23a29.85 29.85 0 0 0 15-4.023V102.14h-53Z"></path><path fill="#ffcd85" d="M413.5 111.5h-23a30 30 0 0 1-30-30v-74l43 10c16.569 0 30 3.431 30 20l10 10.796V81.5a30 30 0 0 1-30 30Z"></path><path fill="#4a4f60" d="M413.5 7.5h-53v11.704l3.176 4.864 31.665 24.543a38.692 38.692 0 0 0 44.684 1.928l3.475-2.243V37.5a30 30 0 0 0-30-30Z"></path><path fill="#63ea86" d="M463.49 181.14v98a29.998 29.998 0 0 1-30 30H322.5v-75.55h-92a33.46 33.46 0 0 1 33.45-33.45h52.6l50.16-50.2a30.013 30.013 0 0 1 21.22-8.8h35.56a40.002 40.002 0 0 1 40 40Z"></path><path fill="#3ce568" d="M423.49 141.14h-20a40.002 40.002 0 0 1 40 40v98a29.998 29.998 0 0 1-30 30h20a29.998 29.998 0 0 0 30-30v-98a40.002 40.002 0 0 0-40-40zm-60.518 73.207a6.096 6.096 0 0 0-1.335-5.97l-23.6-25.552-19.631 19.65h-52.61a33.445 33.445 0 0 0-33.445 33.445l86.948 27.35a26.954 26.954 0 0 0 33.794-17.604z"></path><path fill="#ff7c4e" d="M245.5 201.218a33.458 33.458 0 0 0-25 32.368h25Z"></path><path fill="#ffcd85" d="m362.185 208.64-25.999-28.149-19.63 19.65h-52.61a33.445 33.445 0 0 0-33.446 33.445h107Z"></path><path fill="#676e87" d="M314.5 504.5h-22l-11.581-34.743a15 15 0 0 0-14.23-10.257H78.312a15 15 0 0 0-14.23 10.257L52.5 504.5h-22a8 8 0 0 1-8-8V265.414h300V496.5a8 8 0 0 1-8 8Z"></path><path fill="#595f74" d="M44.081 469.757 32.501 504.5h20l11.58-34.743a15 15 0 0 1 14.23-10.257h-20a15 15 0 0 0-14.23 10.257zm-21.58-204.343v10h247.34a32.66 32.66 0 0 1 32.66 32.66V496.5a8 8 0 0 1-8 8h20a8 8 0 0 0 8-8V265.414z"></path><path fill="#cecece" d="M7.5 233.586h330v16.828a15 15 0 0 1-15 15h-300a15 15 0 0 1-15-15v-16.828Z"></path><path fill="#bebebe" d="M317.5 233.586v16.828a15 15 0 0 1-15 15h20a15 15 0 0 0 15-15v-16.828Z"></path><path fill="#4a4f60" d="m192.966 70.012-83.932.301v-37.69A25.123 25.123 0 0 1 134.157 7.5h53.785a5.025 5.025 0 0 1 5.024 5.025Z"></path><path fill="#ffc166" d="M178 113.5h-54v15.775a41.938 41.938 0 0 0 54 0Z"></path><path fill="#ffcd85" d="M192.966 57.751v29.405a41.966 41.966 0 0 1-83.932 0V57.751c14.116-6.961 24.374-6.797 30.984-5.495 10.124 1.996 13.94 7.108 24.445 9.216 11.595 2.326 21.932-.896 28.503-3.72Z"></path></svg>