<svg xmlns="http://www.w3.org/2000/svg" width="16" height="16" id="medicine"><path d="M4.5 0a.5.5 0 0 0-.5.5v2a.5.5 0 0 0 .5.5h.543v1h-.258C3.831 4 3 4.719 3 5.658v8.686C3 15.284 3.831 16 4.785 16h6.43c.954 0 1.785-.717 1.785-1.656V5.658C13 4.718 12.169 4 11.215 4h-.258V3h.543a.5.5 0 0 0 .5-.5v-2a.5.5 0 0 0-.5-.5h-7zM5 1h6v1H5V1zm1.043 2h3.914v1H6.043V3zM4.785 5h6.43c.47 0 .785.315.785.658v8.686c0 .343-.315.656-.785.656h-6.43c-.47 0-.785-.313-.785-.656V14h5.5a.5.5 0 0 0 .5-.5v-6a.5.5 0 0 0-.5-.5H4V5.658C4 5.315 4.315 5 4.785 5zM4 8h5v5H4V8zm2.492 1.002A.5.5 0 0 0 6 9.508V10h-.492a.5.5 0 1 0 0 1H6v.494a.5.5 0 1 0 1 0V11h.492a.5.5 0 1 0 0-1H7v-.492a.5.5 0 0 0-.508-.506z" color="#000" font-family="sans-serif" font-weight="400" overflow="visible" style="line-height:normal;text-indent:0;text-align:start;text-decoration-line:none;text-decoration-style:solid;text-decoration-color:#000;text-transform:none;block-progression:tb;white-space:normal;isolation:auto;mix-blend-mode:normal;solid-color:#000;solid-opacity:1"></path></svg>