<svg xmlns="http://www.w3.org/2000/svg" enable-background="new 0 0 512 512" viewBox="0 0 512 512" id="pdf"><path fill="#4d5e81" d="M371,451H81c-5.523,0-10-4.475-10-9.997v-430C71,5.48,75.477,1,81,1h220
				c2.652,0,5.196,1.055,7.071,2.93l70,70.001c1.875,1.875,2.929,4.419,2.929,7.072v120c0,5.523-4.477,10-10,10s-10-4.477-10-10
				V85.145L296.858,21H91v410h270v-49.997c0-5.522,4.477-10,10-10s10,4.478,10,10v60C381,446.525,376.523,451,371,451z"></path><path fill="#4d5e81" d="M301 511H21c-5.523 0-10-4.475-10-9.997v-410C11 85.479 15.477 81 21 81h60c5.523 0 10 4.477 10 10s-4.477 10-10 10H31v390h260v-49.997c0-5.522 4.477-10 10-10s10 4.478 10 10v60C311 506.525 306.523 511 301 511zM371 91h-70c-5.523 0-10-4.475-10-9.997v-70c0-5.523 4.477-10 10-10s10 4.477 10 10V71h60c5.523 0 10 4.477 10 10S376.523 91 371 91z"></path><path fill="#ff7459" d="M491,391.003H181c-5.523,0-10-4.478-10-10v-180c0-5.523,4.477-10,10-10h310
				c5.523,0,10,4.477,10,10v180C501,386.525,496.523,391.003,491,391.003z M191,371.003h290v-160H191V371.003z"></path><path fill="#ff7459" d="M221 351.003c-5.523 0-10-4.478-10-10v-100c0-5.523 4.477-10 10-10h25c19.299 0 35 15.701 35 35 0 19.299-15.701 35-35 35h-15v40C231 346.525 226.523 351.003 221 351.003zM231 281.003h15c8.271 0 15-6.729 15-15 0-8.272-6.729-15-15-15h-15V281.003zM328 351.003h-17c-5.523 0-10-4.478-10-10v-100c0-5.523 4.477-10 10-10h17c29.224 0 53 23.776 53 53v14C381 327.227 357.224 351.003 328 351.003zM321 331.003h7c18.196 0 33-14.804 33-33v-14c0-18.196-14.804-33-33-33h-7V331.003zM411 351.003c-5.523 0-10-4.478-10-10v-100c0-5.523 4.477-10.003 10-10.003h40c5.523 0 10 4.477 10 10s-4.477 10-10 10h-30v90.003C421 346.525 416.523 351.003 411 351.003z"></path><path fill="#ff7459" d="M441,301h-30c-5.523,0-10-4.478-10-10s4.477-10,10-10h30c5.523,0,10,4.478,10,10
				S446.523,301,441,301z"></path><path fill="#4d5e81" d="M331 171H121c-5.523 0-10-4.477-10-10s4.477-10 10-10h210c5.523 0 10 4.477 10 10S336.523 171 331 171zM331 131H121c-5.523 0-10-4.477-10-10s4.477-10 10-10h210c5.523 0 10 4.477 10 10S336.523 131 331 131zM221 91H121c-5.523 0-10-4.477-10-10s4.477-10 10-10h100c5.523 0 10 4.477 10 10S226.523 91 221 91z"></path></svg>