<svg xmlns="http://www.w3.org/2000/svg" data-name="Layer 1" viewBox="0 0 512 512" id="prescription"><path fill="#ffcd85" d="m485.41 425.15-89.51 76.02-18.58-41.39-30.58-68.12-12.8-28.52-3.94-84.73-6.85-147.59 30.1 20.5 47.13 32.1a75.26 75.26 0 0 1 32.86 65.94l-4.55 91.37a53.083 53.083 0 0 0 14.21 38.84Z"></path><path fill="#ffc166" d="M442.9 379.57a53.083 53.083 0 0 1-14.21-38.84l4.55-91.37a75.26 75.26 0 0 0-32.86-65.94l-47.13-32.1-30.1-20.5.49 10.55 14.61 9.95 47.13 32.1a75.26 75.26 0 0 1 32.86 65.94l-4.55 91.37a53.083 53.083 0 0 0 14.21 38.84l42.51 45.58-78.65 66.797 4.14 9.223 89.51-76.02Z"></path><path fill="#ffc166" d="M353.25 151.32v233.25l-6.51 7.09-17.08 18.61a62.614 62.614 0 0 1-2.73-19.9l.41-16.75a39.041 39.041 0 0 0-8.29-25.01l-55.43-70.91a14.525 14.525 0 0 1 1.5-19.53 32.552 32.552 0 0 1 45.22.65L330 278.41l-6.85-147.59Z"></path><path fill="#f2f2f2" d="M338.25 41.17v343.4l-23.59 25.7v.01l-45.14 49.19H57.7a33.743 33.743 0 0 1-33.8-33.67V41.17A33.737 33.737 0 0 1 57.7 7.5h246.75a33.73 33.73 0 0 1 33.8 33.67Z"></path><path fill="#bebebe" d="M269.522 459.467v-68.161a6.747 6.747 0 0 1 6.76-6.733h61.968Z"></path><path fill="#dedede" d="M338.25 301.57v83l-23.59 25.7a62.614 62.614 0 0 1-2.73-19.9l.41-16.75a39.041 39.041 0 0 0-8.29-25.01l-55.43-70.91a14.525 14.525 0 0 1 1.5-19.53 32.552 32.552 0 0 1 45.22.65L315 278.41Z"></path><path fill="#adadad" d="m312.072 384.573-.142 5.797a62.614 62.614 0 0 0 2.73 19.9l23.588-25.698Z"></path><path fill="#ffcd85" d="m383.53 425.15-6.21 34.63-3.07 17.13-35.15-47.85a62.725 62.725 0 0 1-12.17-38.69l.41-16.75a39.041 39.041 0 0 0-8.29-25.01l-55.43-70.91a14.525 14.525 0 0 1 1.5-19.53 32.552 32.552 0 0 1 45.22.65L330 278.41l23.25 23.16 1.8 1.79Z"></path><path fill="#ffc166" d="M265.125 273.173a32.543 32.543 0 0 1 45.218.652l34.323 34.187a5.189 5.189 0 0 0 8.821-4.23l-.237-2.212-42.907-42.745a32.543 32.543 0 0 0-45.218-.652 14.509 14.509 0 0 0-2.487 18.08 14.558 14.558 0 0 1 2.487-3.08Z"></path><path fill="#ffc570" d="m327.1 383.325-.172 7.048a62.647 62.647 0 0 0 .204 6.639l.204-8.389a39.008 39.008 0 0 0-.236-5.298Z"></path><path fill="#66c1ff" d="m481.288 437.842-85.39 63.326a16.944 16.944 0 0 1-23.648-3.45l-19.962-26.704a16.79 16.79 0 0 1 3.463-23.555l85.39-63.326a16.944 16.944 0 0 1 23.649 3.449l19.961 26.705a16.79 16.79 0 0 1-3.463 23.555Z"></path><path fill="#4eb7ff" d="m484.751 414.287-19.961-26.705a16.944 16.944 0 0 0-23.649-3.45l-5.745 4.261 19.355 25.894a16.79 16.79 0 0 1-3.462 23.555l-79.646 59.065.607.811a16.944 16.944 0 0 0 23.648 3.45l85.39-63.326a16.79 16.79 0 0 0 3.463-23.555Z"></path><rect width="224.346" height="69" x="68.903" y="52.5" fill="#ffcd85" rx="8"></rect><path fill="#ffcd85" d="M293.25 191.5H178.904a7.5 7.5 0 0 1 0-15H293.25a7.5 7.5 0 0 1 0 15zm0 30H178.904a7.5 7.5 0 0 1 0-15H293.25a7.5 7.5 0 0 1 0 15zm-60 80h-54.346a7.5 7.5 0 0 1 0-15h54.346a7.5 7.5 0 0 1 0 15zm15 30h-69.346a7.5 7.5 0 0 1 0-15h69.346a7.5 7.5 0 0 1 0 15zm-23.728 60.573H68.903a7.5 7.5 0 1 1 0-15h155.619a7.5 7.5 0 1 1 0 15zm-45 30H68.904a7.5 7.5 0 1 1 0-15h110.618a7.5 7.5 0 1 1 0 15z"></path><path fill="#66c1ff" d="M136.79 177.21a19.088 19.088 0 0 1-5.61 13.54l-29.58 29.58a19.152 19.152 0 1 1-27.09-27.08l14.79-14.79 14.79-14.79a19.155 19.155 0 0 1 32.7 13.54Z"></path><path fill="#4eb7ff" d="M131.18 163.67a19.152 19.152 0 0 0-21.045-4.072 19.139 19.139 0 0 1 6.045 31.152L86.6 220.33a19.075 19.075 0 0 1-6.045 4.072 19.152 19.152 0 0 0 21.045-4.072l29.58-29.58a19.145 19.145 0 0 0 0-27.08Z"></path><path fill="#ffe64e" d="M136.79 177.21a19.088 19.088 0 0 1-5.61 13.54l-14.79 14.79-27.09-27.08 14.79-14.79a19.155 19.155 0 0 1 32.7 13.54Z"></path><path fill="#ffdf1f" d="M131.18 163.67a19.34 19.34 0 0 0-1.313-1.187c-.138-.115-.279-.222-.419-.332q-.493-.388-1.006-.74c-.153-.104-.306-.21-.462-.31q-.6-.386-1.22-.722c-.088-.048-.174-.103-.262-.149-.487-.254-.983-.48-1.485-.689-.187-.078-.376-.146-.565-.217q-.497-.189-1.001-.35c-.22-.07-.441-.138-.663-.2a19.084 19.084 0 0 0-.99-.241c-.213-.047-.425-.103-.639-.142-.486-.09-.974-.16-1.465-.212-.277-.03-.555-.043-.832-.06-.255-.017-.51-.031-.765-.037a19.388 19.388 0 0 0-.907 0c-.222.005-.442.018-.663.031a19.244 19.244 0 0 0-3.362.497c-.166.04-.332.077-.497.12-.341.092-.68.195-1.016.305-.162.053-.322.111-.483.17-.345.123-.69.248-1.03.392a19.139 19.139 0 0 1 6.045 31.153l-7.291 7.291 7.501 7.499 14.79-14.79a19.145 19.145 0 0 0 0-27.08Z"></path><path fill="#66c1ff" d="M136.79 286.71a19.088 19.088 0 0 1-5.61 13.54l-29.58 29.58a19.152 19.152 0 0 1-27.09-27.08l14.79-14.79 14.79-14.79a19.155 19.155 0 0 1 32.7 13.54Z"></path><path fill="#4eb7ff" d="M131.18 273.17a19.152 19.152 0 0 0-21.045-4.072 19.139 19.139 0 0 1 6.045 31.152L86.6 329.83a19.075 19.075 0 0 1-6.045 4.072 19.152 19.152 0 0 0 21.045-4.072l29.58-29.58a19.145 19.145 0 0 0 0-27.08Z"></path><path fill="#ffe64e" d="M136.79 286.71a19.088 19.088 0 0 1-5.61 13.54l-14.79 14.79-27.09-27.08 14.79-14.79a19.155 19.155 0 0 1 32.7 13.54Z"></path><path fill="#ffdf1f" d="M131.18 273.17a19.34 19.34 0 0 0-1.313-1.187c-.138-.115-.279-.222-.419-.332q-.493-.388-1.006-.74c-.153-.104-.306-.21-.462-.31q-.6-.386-1.22-.722c-.088-.048-.174-.103-.262-.149-.487-.254-.983-.48-1.485-.689-.187-.078-.376-.146-.565-.217q-.497-.189-1.001-.35c-.22-.07-.441-.138-.663-.2a19.064 19.064 0 0 0-.99-.241c-.213-.047-.425-.103-.639-.142-.486-.09-.974-.16-1.465-.212-.277-.03-.555-.043-.832-.06-.255-.017-.51-.031-.765-.037a19.388 19.388 0 0 0-.907 0c-.222.005-.442.018-.663.031a19.245 19.245 0 0 0-3.362.497c-.166.04-.332.077-.497.121-.341.092-.68.194-1.016.304-.162.053-.322.112-.483.17-.345.123-.69.248-1.03.392a19.139 19.139 0 0 1 6.045 31.153l-7.291 7.291 7.501 7.499 14.79-14.79a19.145 19.145 0 0 0 0-27.08Z"></path></svg>