<svg xmlns="http://www.w3.org/2000/svg" data-name="Layer 1" viewBox="0 0 512 512" id="protection"><path fill="#676e87" d="M256 504.5a304.496 304.496 0 0 1-93.137-48.607C91.029 400.81 44.802 314.615 44.802 217.753V91.44a9.072 9.072 0 0 1 9.768-9.042c26.598 2.005 72.902 1.284 122.886-21.598a245.204 245.204 0 0 0 72.273-50.623 9.052 9.052 0 0 1 12.727-.125A258.11 258.11 0 0 0 338.1 60.8a262.616 262.616 0 0 0 119.527 21.371 9.067 9.067 0 0 1 9.57 9.055v126.526c0 96.863-46.227 183.058-118.06 238.141A304.496 304.496 0 0 1 256 504.5"></path><path fill="#595f74" d="M157.456 70.8a242.96 242.96 0 0 0 17.516-8.894C125.942 83.689 80.726 84.37 54.57 82.397a9.073 9.073 0 0 0-9.768 9.043v1.52A249.754 249.754 0 0 0 157.456 70.8zM457.63 82.17A262.613 262.613 0 0 1 338.1 60.8a258.11 258.11 0 0 1-75.65-50.753 9.055 9.055 0 0 0-12.741.15 248.186 248.186 0 0 1-8.931 8.584 9.098 9.098 0 0 1 1.677 1.27 258.11 258.11 0 0 0 75.645 50.75 260.592 260.592 0 0 0 94.348 21.561 36.282 36.282 0 0 1 34.75 36.306v99.084c0 96.863-46.228 183.058-118.062 238.141a305.137 305.137 0 0 1-39.174 25.517 304.907 304.907 0 0 0 59.174-35.517C420.971 400.81 467.2 314.615 467.2 217.752V91.227a9.066 9.066 0 0 0-9.568-9.056z"></path><path fill="#f2f2f2" d="M84.802 118.8v94.83a255.82 255.82 0 0 0 27.776 116.663A264.396 264.396 0 0 0 256 458.087a264.385 264.385 0 0 0 143.422-127.794 255.82 255.82 0 0 0 27.776-116.663v-95.58A298.444 298.444 0 0 1 322.05 93.317a296.454 296.454 0 0 1-65.459-39.404 283.233 283.233 0 0 1-62.486 39.136 285.903 285.903 0 0 1-109.303 25.75Z"></path><path fill="#dedede" d="M322.05 93.317a296.454 296.454 0 0 1-65.459-39.404q-8.065 6.655-16.576 12.673a296.434 296.434 0 0 0 62.035 36.731 297.346 297.346 0 0 0 71.998 21.232 39.513 39.513 0 0 1 33.15 39.032v60.049a255.82 255.82 0 0 1-27.776 116.663 264.469 264.469 0 0 1-107.351 111.203 264.317 264.317 0 0 0 127.351-121.203 255.82 255.82 0 0 0 27.776-116.663v-95.58A298.444 298.444 0 0 1 322.05 93.317Z"></path><path fill="#f66" d="M325.525 236.531h-49.848v-49.32a13.05 13.05 0 0 0-13.118-12.98h-13.118a13.05 13.05 0 0 0-13.118 12.98v49.32h-49.848a13.05 13.05 0 0 0-13.118 12.98v12.979a13.05 13.05 0 0 0 13.118 12.979h49.848v49.32a13.05 13.05 0 0 0 13.118 12.98h13.118a13.05 13.05 0 0 0 13.118-12.98v-49.32h49.848a13.05 13.05 0 0 0 13.118-12.98V249.51a13.05 13.05 0 0 0-13.118-12.979Z"></path></svg>