<svg xmlns="http://www.w3.org/2000/svg" data-name="Layer 1" viewBox="0 0 512 512" id="respiratory-care"><path fill="#ff8585" d="M314.5 284.323V404.5a100 100 0 0 0 100 100h66a24 24 0 0 0 24-24v-16.337a335.006 335.006 0 0 0-79.685-216.887l-62.124-73.133a27.348 27.348 0 0 0-20.843-9.643 27.348 27.348 0 0 0-27.348 27.348v47.475"></path><path fill="#ff7070" d="m424.815 247.276-62.124-73.133a27.344 27.344 0 0 0-30.846-7.747 27.337 27.337 0 0 1 10.846 7.747l62.124 73.133A335.006 335.006 0 0 1 484.5 464.163V480.5a24 24 0 0 1-24 24h20a24 24 0 0 0 24-24v-16.337a335.006 335.006 0 0 0-79.685-216.887Z"></path><path fill="#f66" d="M386.97 379.244a7.5 7.5 0 0 1-7.452-6.742l-7.714-75.852a7.5 7.5 0 0 1 14.923-1.518l7.714 75.852a7.505 7.505 0 0 1-7.471 8.26Z"></path><path fill="#f66" d="M447.398 421.67a7.466 7.466 0 0 1-4.304-1.363l-60.424-42.426a7.5 7.5 0 1 1 8.619-12.276l60.425 42.426a7.5 7.5 0 0 1-4.316 13.638Z"></path><path fill="#f66" d="M380.56 449.311q-.344 0-.694-.032a7.5 7.5 0 0 1-6.783-8.154l6.427-70.067a7.5 7.5 0 1 1 14.938 1.37l-6.428 70.068a7.501 7.501 0 0 1-7.46 6.815zm50.767-116.992a7.466 7.466 0 0 1-3.636-.945l-52.068-28.927a7.5 7.5 0 0 1 7.285-13.112l52.068 28.927a7.5 7.5 0 0 1-3.65 14.057zm-81.638 46.283a7.502 7.502 0 0 1-6.316-11.534l32.1-50.332a7.5 7.5 0 0 1 12.646 8.066l-32.1 50.331a7.494 7.494 0 0 1-6.33 3.469z"></path><path fill="#ff8585" d="M197.5 284.323V404.5a100 100 0 0 1-100 100h-66a24 24 0 0 1-24-24v-16.337a335.006 335.006 0 0 1 79.685-216.887l62.124-73.133a27.348 27.348 0 0 1 20.843-9.643 27.348 27.348 0 0 1 27.348 27.348v92.475Z"></path><path fill="#ff7070" d="M170.152 164.5a27.331 27.331 0 0 0-9.996 1.896 27.35 27.35 0 0 1 17.344 25.452V404.5a100 100 0 0 1-100 100h20a100 100 0 0 0 100-100V191.848a27.348 27.348 0 0 0-27.348-27.348Z"></path><path fill="#f66" d="M64.603 421.67a7.5 7.5 0 0 1-4.316-13.64l57.62-40.455 7.366-72.443a7.5 7.5 0 0 1 14.923 1.518l-7.713 75.852a7.5 7.5 0 0 1-3.152 5.38l-60.425 42.425a7.465 7.465 0 0 1-4.303 1.362Z"></path><path fill="#f66" d="m265.868 241.846 106.78 93.265 8.228-46.543-94.243-73.585a15 15 0 0 1-5.133-11.298V6a6 6 0 0 0-6-6h-39a6 6 0 0 0-6 6v197.685a15 15 0 0 1-5.132 11.298l-96.276 74.352 7.324 44.482 109.717-91.97a15 15 0 0 1 19.735 0zM131.44 449.311a7.5 7.5 0 0 1-7.46-6.815l-6.428-70.068a7.5 7.5 0 1 1 14.938-1.37l6.428 70.067a7.5 7.5 0 0 1-6.784 8.154q-.35.033-.694.032z"></path><path fill="#f66" d="M80.674 332.32a7.5 7.5 0 0 1-3.65-14.058l52.068-28.927a7.5 7.5 0 0 1 7.285 13.112L84.31 331.374a7.465 7.465 0 0 1-3.635.945zm81.638 46.282a7.493 7.493 0 0 1-6.33-3.469l-32.1-50.331a7.5 7.5 0 1 1 12.646-8.066l32.1 50.332a7.502 7.502 0 0 1-6.316 11.534z"></path><path fill="#ff4e4e" d="M230.5 47.786h51v15h-51zM230.5 77.786h51v15h-51zM230.5 107.786h51v15h-51zM230.5 137.786h51v15h-51zM230.5 167.786h51v15h-51z"></path></svg>